<?xml version="1.0" encoding="UTF-8"?><svg id="Layer_1" xmlns="http://www.w3.org/2000/svg" width="400" height="400" viewBox="0 0 400 400"><g><path d="M311.79,83.29c-72.82-22.46-150.76-22.46-223.57,0-5.08-16.45-10.15-32.91-15.23-49.36,82.74-25.52,171.29-25.52,254.03,0-5.08,16.45-10.15,32.91-15.23,49.36Z" fill="#28b6e7" stroke="#231f20" stroke-miterlimit="10"/><path d="M81.02,62.28c-12.65-.97-25.59-1.32-38.75-.98,9.65-9.52,19.9-18.67,30.71-27.38" fill="#28b6e7" stroke="#231f20" stroke-miterlimit="10"/><path d="M87.55,83.27c-9.1-.96-18.36-1.57-27.77-1.82,6.83-6.65,13.97-13.1,21.43-19.34" fill="#28b6e7" stroke="#231f20" stroke-miterlimit="10"/><path d="M318.95,62.38c12.65-.97,25.58-1.32,38.74-.98-9.65-9.52-19.89-18.66-30.71-27.38" fill="#28b6e7" stroke="#231f20" stroke-miterlimit="10"/><path d="M312.42,83.37c9.1-.96,18.36-1.57,27.77-1.82-6.83-6.65-13.97-13.1-21.42-19.33" fill="#28b6e7" stroke="#231f20" stroke-miterlimit="10"/></g><text transform="translate(141.71 57.23)" fill="#231f20" font-family="MyriadPro-Regular, &apos;Myriad Pro&apos;" font-size="40"><tspan x="0" y="0">HAP</tspan><tspan x="71.84" y="0" letter-spacing="0em">P</tspan><tspan x="92.76" y="0">Y</tspan></text></svg>