<?xml version="1.0" encoding="UTF-8"?><svg id="Layer_1" xmlns="http://www.w3.org/2000/svg" width="400" height="400" viewBox="0 0 400 400"><g><path d="M346.54,381.1h0c-15.99-5.98-33.35-7.29-50.06-3.78l-36.71,7.7c-11.23,0-22.44-.84-33.54-2.51l-33.18-4.98c-20.13-3.02-40.56-3.52-60.82-1.49l-77.69,7.81c-6.19,.62-11.57-4.24-11.57-10.46v-34.35c0-12.82,11.51-22.58,24.16-20.49l14.61,2.42c30.13,4.99,60.99,3.19,90.34-5.27l44.23-12.75c35.18-4.68,70.9-3.29,105.61,4.12l26.59,5.67c4.97,1.06,8.51,5.45,8.51,10.52v50.58c0,5.41-5.41,9.17-10.48,7.27Z" fill="#65bc46"/><circle cx="66.41" cy="346.26" r="7.84" fill="#8c50a0"/><circle cx="88.35" cy="339.98" r="9.4" fill="#8c50a0"/><circle cx="76.15" cy="360.26" r="3.92" fill="#8c50a0"/><circle cx="324.38" cy="347.66" r="7.84" fill="#8c50a0"/><circle cx="344.33" cy="358.74" r="9.4" fill="#8c50a0"/><circle cx="321.36" cy="364.45" r="3.92" fill="#8c50a0"/><circle cx="264.49" cy="312.35" r="4.98" fill="#8c50a0"/><circle cx="132.74" cy="368.37" r="5.74" fill="#8c50a0"/><circle cx="144.62" cy="364.18" r="4.08" fill="#8c50a0"/></g><text transform="translate(149.47 358.76)" fill="#231f20" font-family="MyriadPro-Regular, &apos;Myriad Pro&apos;" font-size="40"><tspan x="0" y="0">SMILE</tspan></text></svg>